<svg xmlns="http://www.w3.org/2000/svg" width="146.217" height="18.42" viewBox="0 0 146.217 18.42">
  <g id="Group_12" data-name="Group 12" transform="translate(-332.509 -285.934)">
    <path id="Path_25" data-name="Path 25" d="M333.527,287.291a21.12,21.12,0,0,1,2.962-.2,6.235,6.235,0,0,1,4.112,1.138,3.865,3.865,0,0,1,1.483,3.2,4.561,4.561,0,0,1-1.476,3.5,6.943,6.943,0,0,1-4.556,1.327,21.172,21.172,0,0,1-2.525-.126Zm1.717,7.583a8.157,8.157,0,0,0,1.105.049c2.52.015,3.914-1.289,3.914-3.412.011-1.967-1.32-3.1-3.661-3.1a7.043,7.043,0,0,0-1.358.113Z" fill="#fff"/>
    <path id="Path_26" data-name="Path 26" d="M417.267,287.291a21.12,21.12,0,0,1,2.962-.2,6.237,6.237,0,0,1,4.112,1.138,3.865,3.865,0,0,1,1.483,3.2,4.561,4.561,0,0,1-1.476,3.5,6.943,6.943,0,0,1-4.556,1.327,21.172,21.172,0,0,1-2.525-.126Zm1.717,7.583a8.156,8.156,0,0,0,1.1.049c2.52.015,3.914-1.289,3.914-3.412.011-1.967-1.32-3.1-3.661-3.1a7.042,7.042,0,0,0-1.358.113Z" fill="#fff"/>
    <path id="Path_27" data-name="Path 27" d="M352.481,293.223H349.3v2.141h3.543v1.161H347.87v-7.51h4.8v1.161H349.3v1.887h3.177Z" fill="#fff"/>
    <path id="Path_28" data-name="Path 28" d="M360.084,294.953a4.232,4.232,0,0,0,2.032.538c.923,0,1.442-.4,1.442-1.019,0-.554-.383-.885-1.446-1.2-1.377-.409-2.239-1.047-2.239-2.212,0-1.248,1.106-2.174,2.81-2.174a4.568,4.568,0,0,1,2.027.4l-.364,1.135a3.813,3.813,0,0,0-1.691-.39c-.936,0-1.321.465-1.321.9,0,.574.479.847,1.56,1.193,1.421.458,2.131,1.087,2.131,2.258s-.891,2.273-3.027,2.273a4.856,4.856,0,0,1-2.252-.532Z" fill="#fff"/>
    <path id="Path_29" data-name="Path 29" d="M372.8,289.015v7.51h-1.434v-7.51Z" fill="#fff"/>
    <path id="Path_30" data-name="Path 30" d="M385.251,296.133a8.714,8.714,0,0,1-2.74.47,4.561,4.561,0,0,1-3.288-1.089,3.618,3.618,0,0,1-1.092-2.672c0-2.237,1.749-3.9,4.572-3.9a5.807,5.807,0,0,1,2.271.4l-.33,1.131a4.731,4.731,0,0,0-1.989-.368c-1.809,0-3.018,1.025-3.018,2.646a2.677,2.677,0,0,0,2.956,2.711,3.3,3.3,0,0,0,1.25-.179v-1.8h-1.495v-1.112h2.9Z" fill="#fff"/>
    <path id="Path_31" data-name="Path 31" d="M391.273,296.525v-7.51h1.917l2.411,3.23a18.9,18.9,0,0,1,1.57,2.561l.031-.009a23.938,23.938,0,0,1-.134-2.995v-2.787h1.49v7.51h-1.7l-2.435-3.34a27.634,27.634,0,0,1-1.69-2.658l-.044.01c.062,1.012.074,1.979.074,3.106v2.882Z" fill="#fff"/>
    <path id="Path_32" data-name="Path 32" d="M409.444,296.255c-.214-.193-.413-.4-.658-.636a3.619,3.619,0,0,1-2.341.769c-1.824,0-2.708-1.052-2.708-2.124a2.421,2.421,0,0,1,1.578-2.2v-.04a2.246,2.246,0,0,1-.629-1.451,2.071,2.071,0,0,1,2.281-1.963A1.814,1.814,0,0,1,409,290.319c0,.794-.528,1.439-1.685,1.941l-.006.04c.608.635,1.214,1.26,1.638,1.673a4.925,4.925,0,0,0,.793-2.013h1.33a5.523,5.523,0,0,1-1.3,2.86c.5.523.951.99,1.414,1.435Zm-1.386-1.43c-.449-.409-1.238-1.207-2.059-2.068a1.49,1.49,0,0,0-.857,1.258,1.378,1.378,0,0,0,1.512,1.33A2.075,2.075,0,0,0,408.058,294.825Zm-2.043-4.407a1.732,1.732,0,0,0,.6,1.192c.7-.4,1.12-.716,1.12-1.248a.812.812,0,0,0-.837-.845A.864.864,0,0,0,406.015,290.418Z" fill="#fff"/>
    <path id="Path_33" data-name="Path 33" d="M435.844,293.223h-3.177v2.141h3.543v1.161h-4.977v-7.51h4.8v1.161h-3.367v1.887h3.177Z" fill="#fff"/>
    <path id="Path_34" data-name="Path 34" d="M448.534,296.268a5.567,5.567,0,0,1-2.23.39c-2.6,0-4.214-1.528-4.214-3.8,0-2.328,1.791-3.972,4.407-3.972a4.935,4.935,0,0,1,2.1.379l-.324,1.122a4.259,4.259,0,0,0-1.714-.341,2.667,2.667,0,0,0-2.959,2.749,2.633,2.633,0,0,0,2.933,2.689,4.614,4.614,0,0,0,1.748-.318Z" fill="#fff"/>
    <path id="Path_35" data-name="Path 35" d="M461.968,292.7a3.8,3.8,0,0,1-4.019,3.956,3.683,3.683,0,0,1-3.872-3.806,3.823,3.823,0,0,1,3.982-3.97A3.68,3.68,0,0,1,461.968,292.7Zm-6.371.108A2.449,2.449,0,1,0,458.03,290,2.5,2.5,0,0,0,455.6,292.81Z" fill="#fff"/>
    <path id="Path_36" data-name="Path 36" d="M468.231,289.116a14.653,14.653,0,0,1,2.3-.167,3.79,3.79,0,0,1,2.468.624,1.873,1.873,0,0,1,.674,1.505,1.983,1.983,0,0,1-1.429,1.867v.034a1.971,1.971,0,0,1,1.078,1.413,19.058,19.058,0,0,0,.639,2.133H472.49a9.328,9.328,0,0,1-.546-1.755c-.239-.979-.621-1.3-1.462-1.321h-.83v3.076h-1.421Zm1.421,3.3h.979c1,0,1.617-.468,1.617-1.209,0-.842-.669-1.189-1.593-1.189a4.731,4.731,0,0,0-1,.078Z" fill="#fff"/>
    <path id="Path_37" data-name="Path 37" d="M356.77,303.324h-1.28l-.267.769h-.6l1.248-3.3h.514l1.25,3.3h-.6Zm-1.119-.462h.957l-.478-1.37Z" fill="#fff"/>
    <path id="Path_38" data-name="Path 38" d="M364.991,302.88h-.639v1.27h-.574v-3.3h1.161a1.35,1.35,0,0,1,.882.257.907.907,0,0,1,.311.742.934.934,0,0,1-.16.555,1.024,1.024,0,0,1-.446.344l.742,1.375v.029h-.615Zm-.639-.462h.589a.659.659,0,0,0,.454-.146.511.511,0,0,0,.163-.4.541.541,0,0,0-.151-.411.637.637,0,0,0-.45-.15h-.605Z" fill="#fff"/>
    <path id="Path_39" data-name="Path 39" d="M371.759,302.722H370.4v1.016h1.585v.458h-2.159v-3.3h2.143v.463H370.4v.911h1.356Z" fill="#fff"/>
    <path id="Path_40" data-name="Path 40" d="M377.7,302.774h-1.329v1.4H375.8v-3.3h2.1v.463h-1.524v.981H377.7Z" fill="#fff"/>
    <path id="Path_41" data-name="Path 41" d="M381.9,303.681h1.5v.458H381.33v-3.3h.574Z" fill="#fff"/>
    <path id="Path_42" data-name="Path 42" d="M388.953,302.642H387.6v1.016h1.585v.458h-2.159v-3.3h2.143v.463H387.6v.912h1.356Z" fill="#fff"/>
    <path id="Path_43" data-name="Path 43" d="M395.545,303.041a1.194,1.194,0,0,1-.39.825,1.332,1.332,0,0,1-.9.3,1.293,1.293,0,0,1-.7-.186,1.244,1.244,0,0,1-.464-.532,1.926,1.926,0,0,1-.17-.8v-.309a1.915,1.915,0,0,1,.166-.822,1.254,1.254,0,0,1,.474-.55,1.332,1.332,0,0,1,.716-.192,1.278,1.278,0,0,1,.88.295,1.242,1.242,0,0,1,.388.839h-.572a.814.814,0,0,0-.207-.514.686.686,0,0,0-.489-.158.672.672,0,0,0-.575.274,1.372,1.372,0,0,0-.2.8v.293a1.459,1.459,0,0,0,.191.818.639.639,0,0,0,.562.281.738.738,0,0,0,.508-.153.787.787,0,0,0,.215-.505Z" fill="#fff"/>
    <path id="Path_44" data-name="Path 44" d="M401.218,301.265h-1.029v2.84h-.57v-2.84H398.6V300.8h2.619Z" fill="#fff"/>
    <path id="Path_45" data-name="Path 45" d="M405.142,304.082h-.572v-3.3h.572Z" fill="#fff"/>
    <path id="Path_46" data-name="Path 46" d="M411.722,302.6a2.024,2.024,0,0,1-.168.852,1.265,1.265,0,0,1-.48.562,1.408,1.408,0,0,1-1.433,0,1.3,1.3,0,0,1-.486-.558,2,2,0,0,1-.173-.838v-.186a1.991,1.991,0,0,1,.172-.852,1.284,1.284,0,0,1,.482-.567,1.415,1.415,0,0,1,1.432,0,1.258,1.258,0,0,1,.481.558,2,2,0,0,1,.173.846Zm-.574-.172a1.442,1.442,0,0,0-.207-.841.732.732,0,0,0-1.17,0,1.407,1.407,0,0,0-.215.825v.19a1.434,1.434,0,0,0,.212.841.682.682,0,0,0,.589.3.674.674,0,0,0,.586-.291,1.46,1.46,0,0,0,.205-.848Z" fill="#fff"/>
    <path id="Path_47" data-name="Path 47" d="M418.183,304.128h-.574l-1.472-2.343v2.343h-.574v-3.3h.574l1.477,2.351v-2.351h.569Z" fill="#fff"/>
    <path id="Path_48" data-name="Path 48" d="M429.075,302.631a2.022,2.022,0,0,1-.168.851,1.273,1.273,0,0,1-.48.563,1.408,1.408,0,0,1-1.433,0,1.3,1.3,0,0,1-.486-.559,1.962,1.962,0,0,1-.173-.837v-.186a2,2,0,0,1,.172-.853,1.275,1.275,0,0,1,.482-.566,1.412,1.412,0,0,1,1.432,0,1.269,1.269,0,0,1,.481.558,2,2,0,0,1,.173.846Zm-.574-.173a1.445,1.445,0,0,0-.207-.841.733.733,0,0,0-1.171,0,1.417,1.417,0,0,0-.214.825v.191a1.43,1.43,0,0,0,.212.84.733.733,0,0,0,1.174.008,1.464,1.464,0,0,0,.206-.848Z" fill="#fff"/>
    <path id="Path_49" data-name="Path 49" d="M434.774,302.786h-1.329v1.4h-.574v-3.3h2.1v.463h-1.524v.982h1.329Z" fill="#fff"/>
    <path id="Path_50" data-name="Path 50" d="M443.487,302.425l.76-1.565h.635l-1.107,2.086v1.216H443.2v-1.216l-1.109-2.086h.638Z" fill="#fff"/>
    <path id="Path_51" data-name="Path 51" d="M451.093,302.744a2.024,2.024,0,0,1-.168.852,1.27,1.27,0,0,1-.48.562,1.408,1.408,0,0,1-1.433,0,1.29,1.29,0,0,1-.485-.559,1.973,1.973,0,0,1-.174-.837v-.186a2,2,0,0,1,.172-.853,1.294,1.294,0,0,1,.482-.566,1.412,1.412,0,0,1,1.432,0,1.271,1.271,0,0,1,.482.558,2,2,0,0,1,.172.847Zm-.574-.173a1.441,1.441,0,0,0-.207-.84.732.732,0,0,0-1.17,0,1.405,1.405,0,0,0-.215.824v.191a1.433,1.433,0,0,0,.212.841.683.683,0,0,0,.589.3.676.676,0,0,0,.586-.29,1.46,1.46,0,0,0,.205-.848Z" fill="#fff"/>
    <path id="Path_52" data-name="Path 52" d="M457.214,300.927v2.206a1.071,1.071,0,0,1-.337.834,1.474,1.474,0,0,1-1.8,0,1.078,1.078,0,0,1-.333-.84v-2.2h.571v2.209a.7.7,0,0,0,.168.506.653.653,0,0,0,.494.175c.442,0,.663-.234.663-.7v-2.191Z" fill="#fff"/>
    <rect id="Rectangle_2" data-name="Rectangle 2" width="146.136" height="0.83" transform="translate(332.509 297.885)" fill="#fff"/>
    <path id="Path_53" data-name="Path 53" d="M332.509,300.678l20.006,2.846-.067-1.332Z" fill="#fff"/>
    <path id="Path_54" data-name="Path 54" d="M478.725,300.445,459.5,303.18l.064-1.281Z" fill="#fff"/>
    <path id="Path_55" data-name="Path 55" d="M432.949,288.248l.743-2.314h1.377l-.9,2.314Z" fill="#fff"/>
  </g>
</svg>
